<svg width="515" height="90" viewBox="0 0 515 90" fill="none" xmlns="http://www.w3.org/2000/svg">
<g clip-path="url(#clip0_1223_16031)">
<path d="M57.586 7.3L19.579 28.6V60.6M19.579 60.6L10 66M19.579 60.6L38.531 71.2L76.538 49.9M38.531 81.8L76.538 60.5V28.5L86.117 23.1M76.538 28.6L57.586 18L19.579 39.3M76.538 39.3L57.586 28.6L19.579 49.9L38.531 60.5L76.538 39.2M67.062 44.6L48.11 33.9M48.11 55.2L29.261 44.7M38.531 49.9L57.586 39.2M10.103 23.3L48.11 2L86.117 23.3V65.9L48.11 87.1L10.103 65.9V23.3Z" stroke="black" stroke-width="4" stroke-miterlimit="10"/>
<path d="M134.344 30.7969L145.828 60.6562L157.734 30.7969H160.992L148.031 63H143.672L132.375 33.9141L121.102 63H116.742L103.781 30.7969H107.039L118.945 60.6562L130.406 30.7969H134.344ZM206.391 46.9219C206.391 49.8125 205.867 52.3125 204.82 54.4219C203.773 56.5156 202.336 58.25 200.508 59.625C198.68 60.9844 196.523 61.9922 194.039 62.6484C191.555 63.3047 188.875 63.6328 186 63.6328C183.109 63.6328 180.414 63.3047 177.914 62.6484C175.414 61.9922 173.242 60.9844 171.398 59.625C169.555 58.25 168.109 56.5156 167.062 54.4219C166.016 52.3125 165.492 49.8125 165.492 46.9219C165.492 45 165.734 43.2578 166.219 41.6953C166.703 40.1172 167.383 38.7109 168.258 37.4766C169.133 36.2266 170.188 35.1484 171.422 34.2422C172.672 33.3359 174.055 32.5859 175.57 31.9922C177.102 31.3828 178.742 30.9375 180.492 30.6562C182.242 30.3594 184.078 30.2109 186 30.2109C188.875 30.2109 191.555 30.5391 194.039 31.1953C196.523 31.8516 198.68 32.8672 200.508 34.2422C202.336 35.6016 203.773 37.3359 204.82 39.4453C205.867 41.5391 206.391 44.0312 206.391 46.9219ZM203.367 46.9219C203.367 44.6406 202.992 42.625 202.242 40.875C201.508 39.125 200.414 37.6562 198.961 36.4688C197.508 35.2656 195.695 34.3594 193.523 33.75C191.367 33.125 188.859 32.8125 186 32.8125C183.141 32.8125 180.617 33.125 178.43 33.75C176.258 34.375 174.438 35.2891 172.969 36.4922C171.5 37.6797 170.391 39.1562 169.641 40.9219C168.891 42.6719 168.516 44.6719 168.516 46.9219C168.516 49.2031 168.891 51.2188 169.641 52.9688C170.391 54.7188 171.5 56.1953 172.969 57.3984C174.438 58.5859 176.258 59.4922 178.43 60.1172C180.617 60.7266 183.141 61.0312 186 61.0312C188.859 61.0312 191.367 60.7266 193.523 60.1172C195.695 59.4922 197.508 58.5859 198.961 57.3984C200.414 56.1953 201.508 54.7188 202.242 52.9688C202.992 51.2188 203.367 49.2031 203.367 46.9219ZM217.922 49.2188V63H214.992V30.7969H231.023C233.477 30.7969 235.578 30.9922 237.328 31.3828C239.078 31.7578 240.508 32.3359 241.617 33.1172C242.742 33.8828 243.562 34.8438 244.078 36C244.594 37.1562 244.852 38.5078 244.852 40.0547C244.852 42.4609 244.219 44.3906 242.953 45.8438C241.688 47.2812 239.648 48.2656 236.836 48.7969L247.828 63H244.148L233.766 49.125C233.328 49.1562 232.883 49.1797 232.43 49.1953C231.977 49.2109 231.508 49.2188 231.023 49.2188H217.922ZM241.828 40.0547C241.828 38.6797 241.586 37.5703 241.102 36.7266C240.617 35.8672 239.828 35.2031 238.734 34.7344C237.641 34.2656 236.203 33.9531 234.422 33.7969C232.656 33.625 230.484 33.5391 227.906 33.5391H217.922V46.4766H227.812C230.391 46.4766 232.57 46.4062 234.352 46.2656C236.133 46.1094 237.578 45.8047 238.688 45.3516C239.797 44.8828 240.594 44.2344 241.078 43.4062C241.578 42.5625 241.828 41.4453 241.828 40.0547ZM257.953 45.9609L281.906 30.7969H285.984L262.383 46.2422L287.438 63H282.445L257.953 46.5938V63H254.977V30.7969H257.953V45.9609ZM325.617 54.1172C325.617 55.3672 325.453 56.4531 325.125 57.375C324.797 58.2969 324.336 59.0938 323.742 59.7656C323.164 60.4219 322.461 60.9609 321.633 61.3828C320.82 61.7891 319.922 62.1172 318.938 62.3672C317.953 62.6016 316.898 62.7656 315.773 62.8594C314.648 62.9531 313.484 63 312.281 63H293.695V30.7969H311.859C312.781 30.7969 313.703 30.8359 314.625 30.9141C315.547 30.9922 316.43 31.1406 317.273 31.3594C318.133 31.5625 318.922 31.8516 319.641 32.2266C320.375 32.6016 321.008 33.0938 321.539 33.7031C322.086 34.3125 322.508 35.0469 322.805 35.9062C323.117 36.7656 323.273 37.7812 323.273 38.9531C323.273 40 323.141 40.9062 322.875 41.6719C322.625 42.4375 322.234 43.0938 321.703 43.6406C321.188 44.1875 320.523 44.6406 319.711 45C318.898 45.3438 317.945 45.6172 316.852 45.8203C318.414 45.9297 319.75 46.1953 320.859 46.6172C321.969 47.0391 322.875 47.6016 323.578 48.3047C324.281 49.0078 324.797 49.8516 325.125 50.8359C325.453 51.8047 325.617 52.8984 325.617 54.1172ZM320.531 39C320.531 38.5469 320.5 38.0938 320.438 37.6406C320.375 37.1875 320.234 36.7578 320.016 36.3516C319.797 35.9297 319.477 35.5391 319.055 35.1797C318.648 34.8203 318.086 34.5156 317.367 34.2656C316.648 34 315.758 33.7969 314.695 33.6562C313.648 33.5 312.383 33.4219 310.898 33.4219H296.625V44.6719H310.898C313.008 44.6719 314.695 44.5234 315.961 44.2266C317.227 43.9141 318.195 43.5 318.867 42.9844C319.555 42.4688 320 41.8672 320.203 41.1797C320.422 40.4922 320.531 39.7656 320.531 39ZM322.547 54.0703C322.547 52.8516 322.336 51.8125 321.914 50.9531C321.492 50.0938 320.844 49.3906 319.969 48.8438C319.094 48.2969 317.969 47.8984 316.594 47.6484C315.219 47.3828 313.586 47.25 311.695 47.25H296.625V60.3516H312.094C314.047 60.3516 315.688 60.2422 317.016 60.0234C318.359 59.7891 319.438 59.4219 320.25 58.9219C321.078 58.4062 321.664 57.75 322.008 56.9531C322.367 56.1562 322.547 55.1953 322.547 54.0703ZM333.867 63V30.7969H360.703V33.5391H337.055V44.625H359.508V47.3438H337.055V60.2578H361.055V63H333.867ZM401.016 63L373.031 34.6406V63H370.102V30.7969H373.336L401.32 59.25V30.7969H404.203V63H401.016ZM448.078 60.4453C446.953 60.9141 445.836 61.3438 444.727 61.7344C443.633 62.125 442.492 62.4609 441.305 62.7422C440.117 63.0234 438.867 63.2422 437.555 63.3984C436.242 63.5547 434.812 63.6328 433.266 63.6328C431.359 63.6328 429.523 63.4766 427.758 63.1641C426.008 62.8516 424.375 62.3828 422.859 61.7578C421.344 61.1328 419.969 60.3594 418.734 59.4375C417.5 58.5 416.438 57.4141 415.547 56.1797C414.672 54.9453 413.992 53.5547 413.508 52.0078C413.039 50.4609 412.805 48.7656 412.805 46.9219C412.805 45.0781 413.039 43.3828 413.508 41.8359C413.992 40.2891 414.672 38.8984 415.547 37.6641C416.438 36.4297 417.5 35.3516 418.734 34.4297C419.969 33.4922 421.344 32.7109 422.859 32.0859C424.375 31.4609 426.008 30.9922 427.758 30.6797C429.508 30.3672 431.344 30.2109 433.266 30.2109C434.812 30.2109 436.242 30.2891 437.555 30.4453C438.867 30.6016 440.117 30.8203 441.305 31.1016C442.492 31.3828 443.633 31.7188 444.727 32.1094C445.836 32.4844 446.953 32.9062 448.078 33.375V36.8906C447.188 36.3281 446.234 35.7969 445.219 35.2969C444.203 34.7969 443.102 34.3594 441.914 33.9844C440.742 33.6094 439.484 33.3125 438.141 33.0938C436.797 32.875 435.359 32.7656 433.828 32.7656C430.734 32.7656 428.055 33.1016 425.789 33.7734C423.523 34.4453 421.648 35.3984 420.164 36.6328C418.695 37.8516 417.602 39.3359 416.883 41.0859C416.18 42.8203 415.828 44.7656 415.828 46.9219C415.828 49.0781 416.18 51.0234 416.883 52.7578C417.602 54.4922 418.695 55.9766 420.164 57.2109C421.648 58.4297 423.523 59.375 425.789 60.0469C428.055 60.7031 430.734 61.0312 433.828 61.0312C435.359 61.0312 436.805 60.9219 438.164 60.7031C439.539 60.4844 440.82 60.1875 442.008 59.8125C443.211 59.4375 444.312 59.0078 445.312 58.5234C446.328 58.0234 447.25 57.5 448.078 56.9531V60.4453ZM488.555 63V47.3906H459.703V63H456.773V30.7969H459.703V44.6719H488.555V30.7969H491.484V63H488.555Z" fill="black"/>
</g>
<defs>
<clipPath id="clip0_1223_16031">
<rect width="515" height="90" fill="white"/>
</clipPath>
</defs>
</svg>
