<svg width="81" height="91" viewBox="0 0 81 91" fill="none" xmlns="http://www.w3.org/2000/svg">
<path d="M49.586 8.3L11.579 29.6V61.6M11.579 61.6L2 67M11.579 61.6L30.531 72.2L68.538 50.9M30.531 82.8L68.538 61.5V29.5L78.117 24.1M68.538 29.6L49.586 19L11.579 40.3M68.538 40.3L49.586 29.6L11.579 50.9L30.531 61.5L68.538 40.2M59.062 45.6L40.11 34.9M40.11 56.2L21.261 45.7M30.531 50.9L49.586 40.2M2.103 24.3L40.11 3L78.117 24.3V66.9L40.11 88.1L2.103 66.9V24.3Z" stroke="black" stroke-width="4" stroke-miterlimit="10"/>
</svg>
