<svg width="55" height="29" viewBox="0 0 55 29" fill="none" xmlns="http://www.w3.org/2000/svg">
<path d="M38.357 28.956C37.9591 28.9273 37.5597 28.9273 37.1618 28.956C36.8094 29.0262 36.4434 28.9678 36.1311 28.7915C35.8189 28.6153 35.5814 28.3331 35.4626 27.9971C35.1771 27.3917 34.8293 26.8128 34.4992 26.2294C34.2183 25.7301 34.3967 25.5577 34.9452 25.5621C35.9977 25.5621 37.0547 25.5356 38.1073 25.5621C38.3137 25.5863 38.5226 25.5461 38.7048 25.4471C38.8871 25.3481 39.0337 25.1952 39.1241 25.0097C40.0874 23.2951 41.073 21.5893 42.0364 19.8747C43.1603 17.8817 44.2663 15.8975 45.3946 13.8823C46.523 11.8672 47.6647 9.85206 48.8153 7.84135C49.0339 7.4613 49.0517 7.23151 48.521 7.23151C47.5175 7.23151 46.523 7.03706 45.515 7.23151C45.3497 7.23425 45.188 7.28077 45.0469 7.36624C44.9057 7.45171 44.7902 7.57302 44.7123 7.71761C42.3664 11.7656 40.0131 15.8076 37.6524 19.8438C37.2777 20.4845 36.8719 21.1076 36.5419 21.7661C36.4832 21.9172 36.3788 22.0466 36.2432 22.1368C36.1075 22.2269 35.947 22.2734 35.7837 22.2699H32.8313C32.3853 22.2699 32.1623 21.9915 31.975 21.66C30.9269 19.8128 29.8922 17.9524 28.8308 16.1096C28.5587 15.6367 28.3848 14.8722 27.8585 14.8545C27.3323 14.8369 27.2163 15.6146 26.9666 16.061C24.6029 20.1325 22.257 24.2158 19.9289 28.3108C19.8238 28.5386 19.6484 28.7272 19.4279 28.8496C19.2074 28.9719 18.9534 29.0216 18.7025 28.9914C17.65 28.9428 16.593 28.9472 15.5405 28.9914C15.3032 29.0084 15.0664 28.9521 14.8627 28.8302C14.659 28.7083 14.4985 28.5269 14.4032 28.3108C13.9572 27.5728 13.5603 26.8216 13.1277 26.1013C12.8735 25.6594 13.0028 25.54 13.48 25.5356C14.6262 25.5356 15.7679 25.4517 16.9141 25.4561C17.1196 25.4714 17.3248 25.423 17.5014 25.3177C17.6779 25.2124 17.8171 25.0554 17.8997 24.8683C19.9215 21.3006 21.9552 17.7432 24.0008 14.1961C24.6118 13.1311 25.2495 12.0837 25.8605 11.0187C25.9081 10.9136 25.9859 10.8247 26.0844 10.7634C26.1828 10.702 26.2973 10.6709 26.4136 10.674H29.0895C29.5354 10.674 29.6782 10.9436 29.8655 11.2618C31.1588 13.4831 32.4641 15.6927 33.7812 17.8905C34.2673 18.6992 34.2896 18.6859 34.7579 17.8905L40.1811 8.70308C41.0062 7.31105 41.8535 5.92786 42.6608 4.52699C42.7494 4.35287 42.8895 4.20967 43.0625 4.1165C43.2354 4.02333 43.4328 3.98462 43.6285 4.00553H54.2296C55.1215 4.00553 55.1661 4.09391 54.7335 4.83191C53.0388 7.73087 51.3455 10.6313 49.6538 13.5332C47.3971 17.4265 45.1583 21.3153 42.906 25.2174C42.2817 26.3001 41.6216 27.3651 41.0106 28.4567C40.9251 28.6333 40.7855 28.7788 40.6118 28.8724C40.438 28.966 40.239 29.003 40.0428 28.9781C39.4764 28.9384 38.9189 28.956 38.357 28.956Z" fill="#7FFF00"/>
<path d="M6.06482 4.02414H11.3914C11.5987 3.99522 11.8095 4.03647 11.9919 4.14163C12.1742 4.24678 12.3181 4.41008 12.4017 4.60672C13.0106 5.79499 13.66 6.97864 14.3185 8.15304C14.4235 8.29639 14.4803 8.47081 14.4803 8.65008C14.4803 8.82936 14.4235 9.00378 14.3185 9.14712C13.8675 9.84529 13.4165 10.5712 13.0151 11.3064C12.7309 11.8196 12.564 11.7132 12.316 11.274C11.6936 10.1597 11.0306 9.07314 10.4082 7.96347C10.3258 7.76485 10.184 7.59822 10.0032 7.48767C9.8224 7.37713 9.61198 7.3284 9.40238 7.34853C8.36503 7.39477 7.31866 7.38552 6.28131 7.34853C5.68145 7.34853 5.5687 7.46412 5.88892 8.01896C7.66144 11.1307 9.43846 14.247 11.211 17.3541C11.5087 17.8765 11.8244 18.3898 12.113 18.9215C12.4017 19.4532 12.564 19.4578 12.8798 18.9215C14.3185 16.3369 15.7843 13.7708 17.2411 11.1954C18.486 8.99454 19.7172 6.79832 20.944 4.59285C21.0243 4.40765 21.1583 4.25232 21.3278 4.14806C21.4973 4.0438 21.694 3.99569 21.8912 4.01027C25.6587 4.03185 29.4172 4.03185 33.1667 4.01027C33.3667 3.9789 33.571 4.0199 33.7447 4.12621C33.9183 4.23252 34.0505 4.39752 34.1184 4.59285C34.6641 5.79499 35.264 6.98326 35.8593 8.16229C35.951 8.30246 36 8.46743 36 8.63621C36 8.805 35.951 8.96996 35.8593 9.11013C35.4083 9.84529 34.9573 10.5989 34.5694 11.3618C34.3439 11.7733 34.2041 11.8242 33.965 11.3618C33.3426 10.1967 32.6751 9.05003 32.0482 7.8895C31.965 7.70077 31.8252 7.54424 31.6491 7.44276C31.4731 7.34127 31.2699 7.30016 31.0695 7.32541C28.6279 7.35316 26.1894 7.35316 23.7539 7.32541C23.5579 7.30382 23.3603 7.34573 23.1888 7.44525C23.0173 7.54478 22.8805 7.69691 22.7977 7.88025C20.1232 12.6657 17.4215 17.4373 14.747 22.2135C14.6488 22.47 14.47 22.6857 14.2388 22.8264C14.0076 22.9671 13.7373 23.0247 13.4706 22.9903C12.6911 22.9394 11.9093 22.9394 11.1298 22.9903C10.9097 23.0192 10.6865 22.9733 10.4942 22.8597C10.302 22.7462 10.1514 22.5711 10.0654 22.3615C7.60732 17.9228 5.10415 13.498 2.64608 9.06852L0.296255 4.87027C-0.154766 4.04264 -0.154766 4.04264 0.747277 4.04264L6.06482 4.02414Z" fill="#964B00"/>
</svg>
